PathFileType	4	(X/Y/Z)	s05c0301.trc
DataRate	CameraRate	NumFrames	NumMarkers	Units	OrigDataRate	OrigDataStartFrame	OrigNumFrames
200	200	4	50	mm	200	1500	2000
Frame#	Time	racr			lacr			c7			jug			rlel			rdr			llel			ldr			s2			lic			ric			lasi			rasi			rpsi			lpsi			rgt			lgt			rth1			rth2			rth3			rth4			rlfc			rmfc			rsh1			rsh2			rsh3			rsh4			rlmal			rmmal			rcal			rtoe			rmt5			lth1			lth2			lth4			lth3			llfc			lmfc			lsh1			lsh2			lsh3			lsh4			llmal			lmmal			lcal			ltoe			lmt5			SBIKE			LBIKE			RBIKE			
		X1	Y1	Z1	X2	Y2	Z2	X3	Y3	Z3	X4	Y4	Z4	X5	Y5	Z5	X6	Y6	Z6	X7	Y7	Z7	X8	Y8	Z8	X9	Y9	Z9	X10	Y10	Z10	X11	Y11	Z11	X12	Y12	Z12	X13	Y13	Z13	X14	Y14	Z14	X15	Y15	Z15	X16	Y16	Z16	X17	Y17	Z17	X18	Y18	Z18	X19	Y19	Z19	X20	Y20	Z20	X21	Y21	Z21	X22	Y22	Z22	X23	Y23	Z23	X24	Y24	Z24	X25	Y25	Z25	X26	Y26	Z26	X27	Y27	Z27	X28	Y28	Z28	X29	Y29	Z29	X30	Y30	Z30	X31	Y31	Z31	X32	Y32	Z32	X33	Y33	Z33	X34	Y34	Z34	X35	Y35	Z35	X36	Y36	Z36	X37	Y37	Z37	X38	Y38	Z38	X39	Y39	Z39	X40	Y40	Z40	X41	Y41	Z41	X42	Y42	Z42	X43	Y43	Z43	X44	Y44	Z44	X45	Y45	Z45	X46	Y46	Z46	X47	Y47	Z47	X48	Y48	Z48	X49	Y49	Z49	X50	Y50	Z50	
1500	7.5000	735.437495	1254.201626	-179.605912	693.419619	1329.512729	-444.496185	707.665132	1363.447901	-305.489607	636.068714	1214.703761	-325.256377	568.797601	1093.172625	3.974456	688.772762	922.800636	-93.530666	531.057931	1112.841495	-576.233511	678.230700	918.322771	-487.502792	122.850278	1222.216809	-247.468442	245.329448	1262.724920	-397.672608	289.049594	1190.284618	-126.226783	287.732954	1194.673872	-380.808697	312.223667	1131.461774	-169.829403	167.485873	1254.546281	-196.359476	158.545598	1279.085419	-278.449777	199.930096	1066.878314	-119.750375	184.706976	1170.406821	-441.256813	222.336456	964.091334	-104.418162	252.957813	880.008590	-99.863294	236.577289	793.472741	-105.539426	289.076979	883.374737	-109.201160	264.391848	646.614456	-133.557921	242.294878	641.670069	-239.093522	207.774791	556.805768	-100.487973	205.081647	468.857349	-110.729822	162.661459	394.606356	-111.876869	234.186225	463.181401	-136.174704	134.061671	262.142390	-118.304149	149.568736	284.555087	-197.653781	59.607918	249.074807	-160.948161	337.503653	140.712881	-159.523629	234.910679	151.071644	-93.163329	293.533864	1085.159352	-474.037044	377.400025	1063.665776	-476.627062	395.154185	1089.259343	-455.065494	439.710789	999.101148	-488.250497	544.537902	892.987241	-472.089144	537.408754	872.697647	-361.309655	446.421719	825.197060	-489.536755	390.613439	759.941379	-474.643111	307.006581	729.770922	-470.447672	411.095896	734.438206	-454.738503	210.482292	647.834220	-458.336423	249.347381	651.910618	-384.910299	146.322528	675.245677	-417.532541	285.133089	416.229258	-392.347023	209.790905	488.960404	-465.690448	-219.467687	911.310410	-273.855933	-53.303705	79.308722	-474.947190	-53.392183	79.076039	-77.636278	
1501	7.5050	734.754584	1254.867791	-181.698393	692.335979	1328.237208	-446.984966	706.930158	1363.106875	-307.925366	634.235140	1215.423314	-326.509477	569.443743	1093.836089	3.375556	689.163109	922.420669	-93.601383	528.770233	1111.352832	-576.765849	678.045693	919.101924	-487.627436	122.920435	1223.829035	-243.128046	243.015347	1265.254087	-395.204849	291.173338	1190.831190	-124.835062	286.050968	1197.379188	-379.324184	313.765551	1132.208584	-169.230811	169.301950	1255.311362	-191.869678	158.109244	1280.632867	-274.322432	201.912474	1068.117735	-117.534358	182.521196	1172.878889	-438.511241	222.297697	966.550447	-102.878600	251.551681	882.015761	-97.766193	233.962617	795.736175	-103.867088	287.859528	884.891825	-106.437908	259.698697	648.049555	-131.199370	239.638927	642.734433	-237.079778	202.632540	558.560282	-98.226296	199.206226	470.546862	-108.394282	156.288882	396.646305	-109.457548	228.472322	464.608465	-133.620165	127.303726	263.770861	-116.185495	142.604207	286.549299	-195.275477	52.498031	253.092639	-157.887622	327.105222	136.848248	-160.776934	225.707771	149.708845	-92.640190	291.999950	1089.006021	-472.316836	376.000956	1068.412129	-474.934352	394.088790	1094.567735	-454.167155	439.340073	1004.917340	-487.422026	547.265958	900.885805	-471.734764	540.637089	881.132493	-361.361163	450.510101	831.591453	-489.483982	396.007631	765.212511	-474.637145	313.116978	733.523870	-470.067584	416.976945	740.053770	-454.987317	217.428284	649.244369	-458.027261	256.278662	654.053095	-384.977463	152.783457	675.409555	-417.227811	296.329308	419.311095	-392.642944	219.903039	490.656541	-465.813399	-219.526927	911.310527	-273.866163	-53.323807	79.370342	-474.990981	-53.537994	78.853180	-77.908286	
1502	7.5100	734.104349	1255.530517	-183.733595	691.356465	1326.809895	-449.291550	706.225078	1362.654099	-310.375463	632.660199	1215.169747	-327.908145	569.964095	1094.558452	2.889715	689.506883	922.114692	-93.660979	526.406659	1109.912303	-577.177071	677.770484	919.900315	-487.721708	123.283460	1225.444791	-239.221135	240.758506	1268.033711	-392.729747	292.992604	1191.988203	-123.495138	284.295073	1200.178623	-377.908369	315.053863	1133.897690	-168.609669	169.589746	1257.410186	-188.363129	157.701946	1282.696913	-270.441182	203.636289	1070.012760	-115.321174	180.050266	1175.567238	-435.866308	222.513818	969.210910	-101.585225	250.571914	884.398403	-96.226147	232.035830	798.312059	-102.862560	287.068829	886.805591	-104.190093	255.971405	650.032005	-128.949955	238.019898	644.470790	-235.326964	198.652007	560.833399	-96.241033	194.436407	472.832557	-106.396340	150.789594	399.322859	-107.347269	223.657713	466.459631	-131.510674	120.926891	266.343652	-114.173840	136.538451	288.762682	-193.138680	45.677828	257.674018	-155.157072	316.738400	133.734230	-161.608290	216.557443	149.147433	-92.215678	290.300761	1092.574960	-470.372126	374.354745	1072.934541	-473.856545	392.426396	1099.564919	-453.233530	438.355111	1009.900987	-485.710530	548.186228	908.818790	-473.145893	543.271598	889.102254	-361.225685	453.839041	837.330739	-489.270263	400.721597	769.848399	-474.551601	318.488482	736.498202	-469.903052	422.236753	745.056905	-455.015034	223.846113	650.075440	-457.676781	263.029105	655.435249	-385.015747	159.317272	674.727799	-417.532059	307.783562	422.189185	-393.229935	230.057907	491.781913	-465.950596	-219.610996	911.306867	-273.959477	-53.328898	79.377452	-474.990415	-53.421661	79.111083	-77.373618	
1503	7.5150	733.376818	1256.147236	-185.718540	690.440847	1325.265055	-451.517307	705.547286	1362.151236	-312.818876	631.039416	1214.903773	-329.057322	570.402194	1095.234214	2.278401	689.769408	921.850177	-93.709237	524.173429	1108.532506	-577.730685	677.506931	920.985978	-487.965061	123.509241	1227.826372	-235.612832	238.508060	1270.834834	-390.401051	294.507221	1193.677241	-122.122322	282.482062	1203.148949	-376.483305	315.792221	1135.912965	-167.487298	172.138213	1259.391970	-185.218322	157.295414	1285.071703	-267.212811	204.947377	1072.156860	-113.625134	177.514047	1178.537170	-433.282962	223.025514	972.150093	-100.579318	250.181350	887.028519	-95.164916	231.103299	801.117462	-102.082103	286.767057	889.173778	-102.467258	253.841663	652.245572	-127.081098	237.228706	646.819291	-233.877184	196.007877	563.428986	-94.544166	190.671291	475.489471	-104.784088	146.253349	402.531804	-105.531078	219.217182	468.854221	-129.962003	114.877496	269.853159	-112.227823	130.430985	292.139832	-191.241994	39.212951	263.158711	-152.643393	306.277423	131.325415	-162.390295	207.419044	149.337088	-91.831910	288.031822	1095.909236	-468.676833	372.070649	1076.940861	-472.059144	390.256587	1104.324765	-452.410821	436.939285	1014.846753	-484.616833	550.646686	916.647060	-471.300117	544.592142	897.335213	-361.280765	456.293336	842.433192	-488.972306	404.644097	773.710009	-474.346993	323.158790	738.576116	-469.792210	426.715424	749.369430	-454.826155	229.699368	650.263213	-457.251568	268.893043	656.300368	-384.872679	163.837113	673.195867	-416.559351	319.300423	424.466796	-393.496003	239.994275	492.322627	-466.124850	-219.706222	911.336532	-274.042871	-53.358219	79.395072	-474.999371	-53.412391	79.128073	-77.428395	
